<svg width="117" height="117" viewBox="0 0 117 117" fill="none" xmlns="http://www.w3.org/2000/svg">
<path opacity="0.2" d="M95.0625 58.5V91.4062C95.0625 92.3759 94.6773 93.3059 93.9916 93.9916C93.3059 94.6773 92.3759 95.0625 91.4062 95.0625H25.5938C24.6241 95.0625 23.6941 94.6773 23.0084 93.9916C22.3227 93.3059 21.9375 92.3759 21.9375 91.4062V58.5H95.0625Z" fill="#247ACB"/>
<path d="M98.7188 36.5625H18.2812C16.262 36.5625 14.625 38.1995 14.625 40.2188V54.8438C14.625 56.863 16.262 58.5 18.2812 58.5H98.7188C100.738 58.5 102.375 56.863 102.375 54.8438V40.2188C102.375 38.1995 100.738 36.5625 98.7188 36.5625Z" stroke="#247ACB" stroke-width="2" stroke-linecap="round" stroke-linejoin="round"/>
<path d="M95.0625 58.5V91.4062C95.0625 92.3759 94.6773 93.3059 93.9916 93.9916C93.3059 94.6773 92.3759 95.0625 91.4062 95.0625H25.5938C24.6241 95.0625 23.6941 94.6773 23.0084 93.9916C22.3227 93.3059 21.9375 92.3759 21.9375 91.4062V58.5" stroke="#247ACB" stroke-width="2" stroke-linecap="round" stroke-linejoin="round"/>
<path d="M58.5 36.5625V95.0625" stroke="#247ACB" stroke-width="2" stroke-linecap="round" stroke-linejoin="round"/>
<path d="M80.7986 14.264C85.0672 18.5326 85.3186 25.7172 80.7986 29.7208C73.0702 36.5625 58.5 36.5625 58.5 36.5625C58.5 36.5625 58.5 21.9924 65.3555 14.264C69.3454 9.74393 76.5299 9.9953 80.7986 14.264Z" stroke="#247ACB" stroke-width="2" stroke-linecap="round" stroke-linejoin="round"/>
<path d="M36.2015 14.264C31.9328 18.5326 31.6814 25.7172 36.2015 29.7208C43.9299 36.5625 58.5 36.5625 58.5 36.5625C58.5 36.5625 58.5 21.9924 51.6446 14.264C47.6547 9.74393 40.4701 9.9953 36.2015 14.264Z" stroke="#247ACB" stroke-width="2" stroke-linecap="round" stroke-linejoin="round"/>
<g clip-path="url(#clip0_323_3427)">
<path d="M58.5001 74.748C66.0535 74.748 72.1767 68.6248 72.1767 61.0715C72.1767 53.5181 66.0535 47.3949 58.5001 47.3949C50.9467 47.3949 44.8235 53.5181 44.8235 61.0715C44.8235 68.6248 50.9467 74.748 58.5001 74.748Z" fill="#D2BF7C"/>
<path d="M58.6327 61.984C55.6929 61.984 53.3013 59.5923 53.3013 56.6525C53.3013 53.7127 55.6929 51.321 58.6327 51.321C61.5725 51.321 63.9642 53.7127 63.9642 56.6525C63.9642 59.5922 61.5725 61.984 58.6327 61.984ZM58.6327 53.4517C56.8677 53.4517 55.4319 54.8875 55.4319 56.6525C55.4319 58.4174 56.8677 59.8534 58.6327 59.8534C60.3977 59.8534 61.8336 58.4174 61.8336 56.6525C61.8336 54.8875 60.3977 53.4517 58.6327 53.4517Z" fill="white"/>
<path d="M58.6327 70.5413C55.6929 70.5413 53.3013 68.1496 53.3013 65.2098C53.3013 64.2769 53.5461 63.3585 54.0092 62.5536L55.8559 63.6162C55.5785 64.0983 55.4319 64.6494 55.4319 65.2098C55.4319 66.9748 56.8677 68.4107 58.6327 68.4107C60.3977 68.4107 61.8336 66.9748 61.8336 65.2098C61.8336 63.4448 60.3977 62.0089 58.6327 62.0089V59.8783C61.5725 59.8783 63.9642 62.27 63.9642 65.2098C63.9642 68.1496 61.5725 70.5413 58.6327 70.5413Z" fill="white"/>
<path d="M58.4998 45.663C67.0093 45.663 73.9078 52.5616 73.908 61.0712C73.908 69.5808 67.0094 76.4794 58.4998 76.4794C49.9902 76.4792 43.0916 69.5807 43.0916 61.0712C43.0917 52.5617 49.9903 45.6631 58.4998 45.663Z" stroke="#D2BF7C" stroke-width="0.7" stroke-miterlimit="10"/>
</g>
<defs>
<clipPath id="clip0_323_3427">
<rect width="32.1429" height="32.1429" fill="white" transform="translate(42.4286 45)"/>
</clipPath>
</defs>
</svg>
