<svg width="96" height="99" viewBox="0 0 96 99" fill="none" xmlns="http://www.w3.org/2000/svg">
<path opacity="0.2" d="M78.9375 53.5V79.0938C78.9375 79.848 78.6379 80.5713 78.1046 81.1046C77.5713 81.6379 76.848 81.9375 76.0938 81.9375H24.9062C24.152 81.9375 23.4287 81.6379 22.8954 81.1046C22.3621 80.5713 22.0625 79.848 22.0625 79.0938V53.5H78.9375Z" fill="#247ACB"/>
<path d="M51.4713 6.52283L2.46586 45.4142C1.23564 46.3905 1.02981 48.1792 2.00613 49.4095L9.07728 58.3195C10.0536 59.5498 11.8424 59.7556 13.0726 58.7793L62.078 19.8879C63.3082 18.9116 63.5141 17.1229 62.5377 15.8926L55.4666 6.98256C54.4903 5.75234 52.7015 5.54651 51.4713 6.52283Z" stroke="#247ACB" stroke-width="2" stroke-linecap="round" stroke-linejoin="round"/>
<path d="M78.9375 53.5V79.0938C78.9375 79.848 78.6379 80.5713 78.1046 81.1046C77.5713 81.6379 76.848 81.9375 76.0938 81.9375H24.9062C24.152 81.9375 23.4287 81.6379 22.8954 81.1046C22.3621 80.5713 22.0625 79.848 22.0625 79.0938V53.5" stroke="#247ACB" stroke-width="2" stroke-linecap="round" stroke-linejoin="round"/>
<path d="M79 53.5L50.5 53.25L22 53" stroke="#247ACB" stroke-width="2" stroke-linecap="round" stroke-linejoin="round"/>
<path d="M29.7723 1.60214C34.4369 2.13887 38.0637 6.39441 37.2457 11.019C35.8452 18.9239 26.9686 25.9685 26.9686 25.9685C26.9686 25.9685 19.9239 17.0919 20.3639 9.06883C20.6092 4.38596 25.1078 1.0654 29.7723 1.60214Z" stroke="#247ACB" stroke-width="2" stroke-linecap="round" stroke-linejoin="round"/>
<path d="M2.60213 23.1647C2.06539 27.8293 5.38595 32.3279 10.0755 32.5816C18.0918 33.0132 26.9685 25.9685 26.9685 25.9685C26.9685 25.9685 19.9239 17.0919 12.0106 15.698C7.39441 14.8734 3.13887 18.5002 2.60213 23.1647Z" stroke="#247ACB" stroke-width="2" stroke-linecap="round" stroke-linejoin="round"/>
</svg>
